<?xml version="1.0" encoding="UTF-8"?>
<svg version="1.1" xmlns="http://www.w3.org/2000/svg" width="500" height="500">
<path d="M0 0 C7.08532732 4.17717058 15.95518083 4.9839546 23.9375 6.4375 C23.9375 7.0975 23.9375 7.7575 23.9375 8.4375 C23.380625 8.65664062 22.82375 8.87578125 22.25 9.1015625 C13.24566886 12.84322713 6.10540442 17.35475488 1.9375 26.4375 C-3.48575082 40.34520942 -4.2016111 55.19441532 -5.26577759 69.92657471 C-6.23250811 83.00655723 -7.24068636 95.82830463 -11.0625 108.4375 C-11.28309082 109.18580078 -11.50368164 109.93410156 -11.73095703 110.70507812 C-19.70412309 137.3370967 -32.91150992 154.7345478 -57.09863281 168.32519531 C-65.79201403 173.24899502 -73.46933248 178.96479989 -81.0625 185.4375 C-82.24848403 186.43645191 -83.43469257 187.43513731 -84.62109375 188.43359375 C-93.46679882 195.9104043 -101.54137007 203.61492706 -109.0625 212.4375 C-110.22458984 213.76587891 -110.22458984 213.76587891 -111.41015625 215.12109375 C-116.9555494 221.57500571 -121.68117244 228.18262479 -126.15234375 235.40625 C-127.69484969 237.85407129 -129.28239951 240.16075706 -131.0625 242.4375 C-132.47611638 221.35105563 -122.51991743 198.6020882 -109.0703125 182.62109375 C-105.96542968 179.24438267 -102.5874001 176.36372659 -99.0625 173.4375 C-97.8855173 172.41563688 -96.71128674 171.39059954 -95.5390625 170.36328125 C-84.39017994 160.59937057 -84.39017994 160.59937057 -79.4375 156.9375 C-69.09077218 149.01609213 -60.72838862 139.61444315 -54.0625 128.4375 C-54.6709375 128.86160156 -55.279375 129.28570312 -55.90625 129.72265625 C-74.11190362 141.90438036 -94.62456432 147.24852981 -116.10546875 150.39453125 C-117.25289551 150.5632373 -118.40032227 150.73194336 -119.58251953 150.90576172 C-135.94723593 153.22495651 -152.4158998 154.62789992 -168.8694458 156.15106201 C-193.01608103 158.38891685 -193.01608103 158.38891685 -217.06640625 161.47265625 C-218.12174561 161.62524902 -219.17708496 161.7778418 -220.2644043 161.93505859 C-246.79446427 166.00391531 -272.69738189 175.59194125 -289.9375 197 C-295.09175162 204.03995343 -299.29909545 211.14728634 -302.0625 219.4375 C-302.3925 219.4375 -302.7225 219.4375 -303.0625 219.4375 C-301.31610643 182.76323506 -277.16281445 149.25943825 -251.0625 125.4375 C-225.17988602 102.86221214 -191.42020824 87.96065723 -156.9375 88.125 C-156.23996613 88.12516113 -155.54243225 88.12532227 -154.82376099 88.12548828 C-145.44631965 88.1404254 -136.30297293 88.65862867 -127 89.9375 C-95.53484729 94.24758748 -69.72149296 88.78372069 -41.6875 74.25 C-40.90882568 73.8463623 -40.13015137 73.44272461 -39.32788086 73.02685547 C-37.20061819 71.88519262 -35.12640993 70.68960881 -33.0625 69.4375 C-32.4648584 69.08880859 -31.8672168 68.74011719 -31.25146484 68.38085938 C-28.8048825 66.70916276 -27.26687802 65.09602689 -26.38427734 62.25219727 C-25.93784802 59.60528848 -25.66396344 56.98702614 -25.4375 54.3125 C-24.02212263 41.9440679 -20.72986781 32.95554013 -14.0625 22.4375 C-12.70641895 20.11635513 -11.38530449 17.77784641 -10.0625 15.4375 C-11.30985567 14.7865741 -12.56051832 14.14198331 -13.8125 13.5 C-14.85664062 12.96052734 -14.85664062 12.96052734 -15.921875 12.41015625 C-20.86176142 10.16557282 -25.96545904 9.46271193 -31.234375 11.12109375 C-41.1966069 15.26057287 -47.11861358 21.33994488 -53.27734375 30.0234375 C-53.86644531 30.82007813 -54.45554687 31.61671875 -55.0625 32.4375 C-55.3925 32.4375 -55.7225 32.4375 -56.0625 32.4375 C-56.93167519 21.35551628 -52.9814144 11.00976537 -46.0625 2.4375 C-33.03925442 -12.21365127 -15.396884 -9.74026846 0 0 Z " fill="#070707" transform="translate(389.0625,108.5625)"/>
<path d="M0 0 C-1.04112164 3.31406542 -2.19272273 6.52758057 -3.5859375 9.70703125 C-15.68925755 37.35586905 -17.84794425 66.68753325 -6.76855469 95.11865234 C0.15720355 112.0722397 10.45454514 126.71945989 23 140 C24.10859687 141.3087602 25.21290974 142.62116359 26.3125 143.9375 C34.74045382 153.51996804 44.31826864 160.8762349 54.921875 167.8828125 C55.93765625 168.58148438 56.9534375 169.28015625 58 170 C58 170.33 58 170.66 58 171 C28.17960929 171.33483256 -4.71764664 170.10812581 -28 149 C-28.74507812 148.35804688 -29.49015625 147.71609375 -30.2578125 147.0546875 C-41.77151127 136.47769642 -49.1774532 120.85555559 -50.17700195 105.23364258 C-50.49251573 90.61567582 -50.03901187 77.09475867 -46 63 C-45.79101074 62.2481543 -45.58202148 61.49630859 -45.36669922 60.72167969 C-38.5530605 36.7642114 -25.3307079 14.00659886 -3.59375 0.77734375 C-2 0 -2 0 0 0 Z " fill="#FC3534" transform="translate(269,5)"/>
<path d="M0 0 C2.64 0 5.28 0 8 0 C9 1 9 1 9.11352539 2.76586914 C9.10828857 3.51473389 9.10305176 4.26359863 9.09765625 5.03515625 C9.09443359 5.84404297 9.09121094 6.65292969 9.08789062 7.48632812 C9.07951172 8.33646484 9.07113281 9.18660156 9.0625 10.0625 C9.05798828 10.91650391 9.05347656 11.77050781 9.04882812 12.65039062 C9.03700373 14.76695663 9.01906769 16.88348685 9 19 C10.98 19 12.96 19 15 19 C15 12.73 15 6.46 15 0 C17.97 0 20.94 0 24 0 C24 15.51 24 31.02 24 47 C21.03 47 18.06 47 15 47 C15 40.73 15 34.46 15 28 C13.02 28 11.04 28 9 28 C9 34.27 9 40.54 9 47 C6.03 47 3.06 47 0 47 C0 31.49 0 15.98 0 0 Z " fill="#1E1E1E" transform="translate(138,368)"/>
<path d="M0 0 C1.94712891 -0.03287109 1.94712891 -0.03287109 3.93359375 -0.06640625 C8.52272799 0.72891196 9.7342604 1.90080625 12.5625 5.5625 C13.02552494 8.57583987 13.19708686 11.00432353 13.12109375 14.00390625 C13.11759666 15.2109446 13.11759666 15.2109446 13.11402893 16.44236755 C13.10431505 18.13771213 13.08258206 19.83302538 13.04956055 21.52807617 C13.00009316 24.12011866 12.98807425 26.71026208 12.98242188 29.30273438 C12.96833668 30.95314515 12.95213255 32.60353949 12.93359375 34.25390625 C12.92823105 35.02690567 12.92286835 35.79990509 12.91734314 36.59632874 C12.76547318 43.47697076 12.76547318 43.47697076 10.5625 46.5625 C7.43191914 48.12779043 4.12170992 47.82941314 0.6875 47.875 C-0.03308594 47.90400391 -0.75367188 47.93300781 -1.49609375 47.96289062 C-4.71693513 48.00144582 -6.93318142 47.90040573 -9.64306641 46.0847168 C-12.26748329 42.39589355 -12.01246412 39.20768511 -11.96875 34.78125 C-11.9725769 33.93075073 -11.97640381 33.08025146 -11.98034668 32.20397949 C-11.98306458 30.40859796 -11.97571182 28.61317676 -11.95898438 26.81787109 C-11.93757167 24.07169207 -11.95878871 21.32812903 -11.984375 18.58203125 C-11.9817317 16.83593173 -11.97660667 15.08983384 -11.96875 13.34375 C-11.97684692 12.52386597 -11.98494385 11.70398193 -11.99328613 10.85925293 C-11.93148424 7.09684036 -11.87162808 5.16378462 -9.62280273 2.04907227 C-6.41467395 -0.13328682 -3.8417154 -0.00380745 0 0 Z M-1.4375 8.5625 C-3.71125955 10.40944043 -3.71125955 10.40944043 -3.68041992 13.23632812 C-3.67631104 14.34427734 -3.67220215 15.45222656 -3.66796875 16.59375 C-3.66603516 17.79644531 -3.66410156 18.99914062 -3.66210938 20.23828125 C-3.64986328 21.50027344 -3.63761719 22.76226562 -3.625 24.0625 C-3.62435547 25.32449219 -3.62371094 26.58648437 -3.62304688 27.88671875 C-3.91628743 33.90523458 -3.91628743 33.90523458 -2.4375 39.5625 C-0.4575 39.5625 1.5225 39.5625 3.5625 39.5625 C3.5625 29.6625 3.5625 19.7625 3.5625 9.5625 C1.9125 9.2325 0.2625 8.9025 -1.4375 8.5625 Z " fill="#1B1B1B" transform="translate(188.4375,367.4375)"/>
<path d="M0 0 C1.94712891 -0.03287109 1.94712891 -0.03287109 3.93359375 -0.06640625 C8.43193605 0.71317729 9.90439838 1.88985578 12.5625 5.5625 C13.05078125 8.45703125 13.05078125 8.45703125 12.875 11.375 C12.80732422 12.83873047 12.80732422 12.83873047 12.73828125 14.33203125 C12.68027344 15.06808594 12.62226562 15.80414063 12.5625 16.5625 C9.5925 16.5625 6.6225 16.5625 3.5625 16.5625 C3.5625 14.2525 3.5625 11.9425 3.5625 9.5625 C1.5825 9.5625 -0.3975 9.5625 -2.4375 9.5625 C-2.1075 12.5325 -1.7775 15.5025 -1.4375 18.5625 C3.1825 20.2125 7.8025 21.8625 12.5625 23.5625 C12.61649244 26.64606805 12.65616955 29.72868888 12.6875 32.8125 C12.70425781 33.68519531 12.72101563 34.55789063 12.73828125 35.45703125 C12.74472656 36.30136719 12.75117187 37.14570313 12.7578125 38.015625 C12.76828613 38.79067383 12.77875977 39.56572266 12.78955078 40.36425781 C12.53160895 42.86157849 11.89010406 44.44089667 10.5625 46.5625 C7.43191914 48.12779043 4.12170992 47.82941314 0.6875 47.875 C-0.03308594 47.90400391 -0.75367187 47.93300781 -1.49609375 47.96289062 C-4.9007951 48.00364672 -7.05232253 47.81425393 -9.9296875 45.93359375 C-11.88017398 42.86637796 -11.84429581 40.91880374 -11.6875 37.3125 C-11.65140625 36.23484375 -11.6153125 35.1571875 -11.578125 34.046875 C-11.50851563 32.81710937 -11.50851563 32.81710937 -11.4375 31.5625 C-8.7975 31.5625 -6.1575 31.5625 -3.4375 31.5625 C-2.7775 33.8725 -2.1175 36.1825 -1.4375 38.5625 C-0.1175 38.5625 1.2025 38.5625 2.5625 38.5625 C2.8925 35.5925 3.2225 32.6225 3.5625 29.5625 C2.5725 29.459375 1.5825 29.35625 0.5625 29.25 C-2.36975886 28.84286599 -4.92932912 28.09119556 -7.6875 27.01953125 C-8.39390625 26.74729736 -9.1003125 26.47506348 -9.828125 26.19458008 C-10.35921875 25.98599365 -10.8903125 25.77740723 -11.4375 25.5625 C-11.55382513 22.14612047 -11.62478897 18.73025103 -11.6875 15.3125 C-11.72101563 14.34441406 -11.75453125 13.37632812 -11.7890625 12.37890625 C-11.88634871 5.32565587 -11.88634871 5.32565587 -9.88671875 1.92578125 C-6.48954469 0.03485023 -3.87441314 -0.00383985 0 0 Z " fill="#1F1F1F" transform="translate(110.4375,367.4375)"/>
<path d="M0 0 C0.67289062 -0.02900391 1.34578125 -0.05800781 2.0390625 -0.08789062 C5.3338987 -0.13004896 7.31594225 0.10793321 10.0859375 1.94140625 C12.07700115 5.0088571 12.03268057 6.93584683 11.875 10.5625 C11.83890625 11.64015625 11.8028125 12.7178125 11.765625 13.828125 C11.69601562 15.05789063 11.69601562 15.05789063 11.625 16.3125 C8.985 16.3125 6.345 16.3125 3.625 16.3125 C3.295 14.3325 2.965 12.3525 2.625 10.3125 C-0.345 9.8175 -0.345 9.8175 -3.375 9.3125 C-3.375 12.2825 -3.375 15.2525 -3.375 18.3125 C-2.62734375 18.50585938 -1.8796875 18.69921875 -1.109375 18.8984375 C-0.12453125 19.15882813 0.8603125 19.41921875 1.875 19.6875 C3.33679688 20.07035156 3.33679688 20.07035156 4.828125 20.4609375 C7.29319465 21.21147547 9.34940585 22.1320888 11.625 23.3125 C11.71203823 26.74984063 11.76540272 30.18689837 11.8125 33.625 C11.83763672 34.60146484 11.86277344 35.57792969 11.88867188 36.58398438 C11.89833984 37.52177734 11.90800781 38.45957031 11.91796875 39.42578125 C11.9336792 40.28985596 11.94938965 41.15393066 11.96557617 42.04418945 C11.625 44.3125 11.625 44.3125 10.34863281 46.08862305 C7.32648006 48.23452273 3.75802795 47.8244917 0.1875 47.8125 C-0.57626953 47.84085937 -1.34003906 47.86921875 -2.12695312 47.8984375 C-6.10376294 47.91228192 -7.79637268 47.81038862 -10.89453125 45.14453125 C-12.56647739 41.94621739 -12.79747224 40.07879901 -12.625 36.5 C-12.57085937 35.03626953 -12.57085937 35.03626953 -12.515625 33.54296875 C-12.46921875 32.80691406 -12.4228125 32.07085937 -12.375 31.3125 C-9.405 31.3125 -6.435 31.3125 -3.375 31.3125 C-3.045 33.6225 -2.715 35.9325 -2.375 38.3125 C-0.725 38.6425 0.925 38.9725 2.625 39.3125 C2.625 36.3425 2.625 33.3725 2.625 30.3125 C1.62597656 29.96316406 0.62695312 29.61382812 -0.40234375 29.25390625 C-1.70578205 28.79442081 -3.0091646 28.33477721 -4.3125 27.875 C-4.97185547 27.64490234 -5.63121094 27.41480469 -6.31054688 27.17773438 C-11.26171875 25.42578125 -11.26171875 25.42578125 -12.375 24.3125 C-12.52918569 21.38297195 -12.60673953 18.49330575 -12.625 15.5625 C-12.645625 14.75039063 -12.66625 13.93828125 -12.6875 13.1015625 C-12.71846368 8.34863819 -12.49411424 5.15839814 -9.375 1.3125 C-6.37212912 -0.18893544 -3.291891 0.04675982 0 0 Z " fill="#1A1A1A" transform="translate(350.375,367.6875)"/>
<path d="M0 0 C3.63 0 7.26 0 11 0 C11.94371079 4.01570822 12.88558362 8.03184228 13.82592773 12.04833984 C14.14446249 13.40782638 14.46345516 14.76720573 14.78295898 16.12646484 C21 42.58070866 21 42.58070866 21 47 C18.03 47 15.06 47 12 47 C11.34 44.36 10.68 41.72 10 39 C7.03 38.67 4.06 38.34 1 38 C0.34 40.97 -0.32 43.94 -1 47 C-3.97 47 -6.94 47 -10 47 C-6.93062192 31.26820365 -3.64267182 15.60923626 0 0 Z M5 14 C4.66104344 15.72807318 4.32908475 17.45751974 4 19.1875 C3.814375 20.15042969 3.62875 21.11335938 3.4375 22.10546875 C3.03122388 24.7934206 2.92066428 27.28771019 3 30 C4.98 30 6.96 30 9 30 C8.01 24.72 7.02 19.44 6 14 C5.67 14 5.34 14 5 14 Z " fill="#1F1F1F" transform="translate(303,368)"/>
<path d="M0 0 C19 0 19 0 24 4 C24.64697266 6.48608398 24.64697266 6.48608398 24.6640625 9.24609375 C24.67050781 10.24833984 24.67695313 11.25058594 24.68359375 12.28320312 C24.66425781 13.32412109 24.64492187 14.36503906 24.625 15.4375 C24.65400391 16.99307617 24.65400391 16.99307617 24.68359375 18.58007812 C24.65260612 23.4048523 24.57798225 26.1611585 21.79296875 30.203125 C18.71693981 32.18210866 17.2915538 32.55277025 13.6875 32.3125 C11.3671875 32.1578125 11.3671875 32.1578125 9 32 C9 36.95 9 41.9 9 47 C6.03 47 3.06 47 0 47 C0 31.49 0 15.98 0 0 Z M9 9 C9 13.62 9 18.24 9 23 C10.98 23 12.96 23 15 23 C15 18.38 15 13.76 15 9 C13.02 9 11.04 9 9 9 Z " fill="#1D1D1D" transform="translate(216,368)"/>
<path d="M0 0 C7.92 0 15.84 0 24 0 C24 2.97 24 5.94 24 9 C19.05 9 14.1 9 9 9 C9 12.3 9 15.6 9 19 C9.78246094 18.98839844 10.56492187 18.97679687 11.37109375 18.96484375 C12.38300781 18.95582031 13.39492188 18.94679688 14.4375 18.9375 C15.44683594 18.92589844 16.45617187 18.91429687 17.49609375 18.90234375 C20 19 20 19 21 20 C21.14115161 22.67058851 21.04247107 25.32432238 21 28 C17.04 28 13.08 28 9 28 C9 31.63 9 35.26 9 39 C13.95 39 18.9 39 24 39 C24 41.64 24 44.28 24 47 C16.08 47 8.16 47 0 47 C0 31.49 0 15.98 0 0 Z " fill="#1E1E1E" transform="translate(377,368)"/>
<path d="M0 0 C7.92 0 15.84 0 24 0 C24 2.64 24 5.28 24 8 C23 9 23 9 19.83984375 9.09765625 C17.90818359 9.08025391 17.90818359 9.08025391 15.9375 9.0625 C14.64714844 9.05347656 13.35679687 9.04445313 12.02734375 9.03515625 C11.02832031 9.02355469 10.02929688 9.01195312 9 9 C9 12.3 9 15.6 9 19 C9.78246094 18.98839844 10.56492187 18.97679687 11.37109375 18.96484375 C12.38300781 18.95582031 13.39492188 18.94679688 14.4375 18.9375 C15.44683594 18.92589844 16.45617187 18.91429687 17.49609375 18.90234375 C20 19 20 19 21 20 C21.125 23.5 21.125 23.5 21 27 C20 28 20 28 17.49609375 28.09765625 C14.6640625 28.06510417 11.83203125 28.03255208 9 28 C9 31.63 9 35.26 9 39 C13.95 39 18.9 39 24 39 C24 41.64 24 44.28 24 47 C16.08 47 8.16 47 0 47 C0 31.49 0 15.98 0 0 Z " fill="#1E1E1E" transform="translate(255,368)"/>
<path d="M0 0 C-1.04112164 3.31406542 -2.19272273 6.52758057 -3.5859375 9.70703125 C-9.04392945 22.17527413 -12.45955592 34.45315349 -14 48 C-14.33 48 -14.66 48 -15 48 C-15.12813117 41.30870551 -15.0835807 34.62188208 -14 28 C-13.67 27.67 -13.34 27.34 -13 27 C-12.63239269 24.67182036 -12.29758419 22.3381615 -12 20 C-11.34 20 -10.68 20 -10 20 C-10 18.68 -10 17.36 -10 16 C-11.65 16.33 -13.3 16.66 -15 17 C-15.33 16.34 -15.66 15.68 -16 15 C-16.66 15 -17.32 15 -18 15 C-18.99 17.475 -18.99 17.475 -20 20 C-21.32 19.67 -22.64 19.34 -24 19 C-18.29029062 12.14559043 -12.52951996 6.78409932 -5 2 C-2 0 -2 0 0 0 Z " fill="#F63B3D" transform="translate(269,5)"/>
<path d="M0 0 C4.55671592 1.51890531 8.31723292 3.95402262 12 7 C12 7.33 12 7.66 12 8 C3.25070565 8.12645229 -5.39977073 7.758359 -14.125 7.125 C-15.32253906 7.04636719 -16.52007812 6.96773437 -17.75390625 6.88671875 C-24.64035508 6.39644583 -31.27464805 5.57459404 -38 4 C-38 3.67 -38 3.34 -38 3 C-35.68756208 2.97314588 -33.3750373 2.95367159 -31.0625 2.9375 C-29.77472656 2.92589844 -28.48695313 2.91429687 -27.16015625 2.90234375 C-24 3 -24 3 -23 4 C-20.93076634 4.22907826 -18.85452523 4.39543552 -16.77734375 4.53515625 C-15.51728516 4.62216797 -14.25722656 4.70917969 -12.95898438 4.79882812 C-11.61849607 4.88681764 -10.27800119 4.97470695 -8.9375 5.0625 C-7.59307024 5.15387529 -6.24866869 5.24566675 -4.90429688 5.33789062 C-1.60312026 5.56270194 1.69828848 5.7832098 5 6 C5 5.34 5 4.68 5 4 C4.360625 3.896875 3.72125 3.79375 3.0625 3.6875 C2.0415625 3.3471875 2.0415625 3.3471875 1 3 C0.505 1.515 0.505 1.515 0 0 Z " fill="#EA6B6C" transform="translate(315,168)"/>
<path d="M0 0 C-1.04112164 3.31406542 -2.19272273 6.52758057 -3.5859375 9.70703125 C-9.04392945 22.17527413 -12.45955592 34.45315349 -14 48 C-14.33 48 -14.66 48 -15 48 C-15.12813117 41.30870551 -15.0835807 34.62188208 -14 28 C-13.67 27.67 -13.34 27.34 -13 27 C-12.63239269 24.67182036 -12.29758419 22.3381615 -12 20 C-11.34 20 -10.68 20 -10 20 C-10 18.68 -10 17.36 -10 16 C-9.34 16 -8.68 16 -8 16 C-7.855625 15.2575 -7.71125 14.515 -7.5625 13.75 C-7.09812508 11.47972261 -6.58136431 9.24240521 -6 7 C-5.34 7 -4.68 7 -4 7 C-4 6.01 -4 5.02 -4 4 C-5.32 4.33 -6.64 4.66 -8 5 C-3.22727273 -0 -3.22727273 -0 0 0 Z " fill="#EA6465" transform="translate(269,5)"/>
<path d="M0 0 C0.33 0.66 0.66 1.32 1 2 C0.0625 4.625 0.0625 4.625 -1 7 C-1.66 7 -2.32 7 -3 7 C-3.12375 7.556875 -3.2475 8.11375 -3.375 8.6875 C-4.49053862 12.8149929 -5.55794873 16.27504274 -9 19 C-9.66 19 -10.32 19 -11 19 C-9.60318936 13.9499923 -7.40056078 10.30405582 -4.375 6.125 C-3.95476562 5.53203125 -3.53453125 4.9390625 -3.1015625 4.328125 C-2.07434578 2.88068326 -1.0380937 1.43966081 0 0 Z " fill="#EC6D6D" transform="translate(244,25)"/>
<path d="M0 0 C4.55671592 1.51890531 8.31723292 3.95402262 12 7 C12 7.33 12 7.66 12 8 C10.06280622 8.05406122 8.12518079 8.09282025 6.1875 8.125 C5.10855469 8.14820313 4.02960938 8.17140625 2.91796875 8.1953125 C0 8 0 8 -3 6 C-0.36 6 2.28 6 5 6 C5 5.34 5 4.68 5 4 C4.0409375 3.8453125 4.0409375 3.8453125 3.0625 3.6875 C2.381875 3.460625 1.70125 3.23375 1 3 C0.67 2.01 0.34 1.02 0 0 Z " fill="#E6797B" transform="translate(315,168)"/>
<path d="M0 0 C2 3 2 3 3 6 C2.29296875 7.9375 2.29296875 7.9375 1.1875 10 C0.83042969 10.680625 0.47335938 11.36125 0.10546875 12.0625 C-0.85807569 13.75125633 -1.92149451 15.38224176 -3 17 C-2.54775239 11.08507728 -1.8417395 5.64800112 0 0 Z " fill="#777777" transform="translate(89,311)"/>
<path d="M0 0 C0.66 0.33 1.32 0.66 2 1 C-2.18389906 6.12527635 -6.54904814 11.17619795 -12 15 C-12.99 15 -13.98 15 -15 15 C-12.06334264 10.96209613 -8.68524643 7.85773305 -4.90234375 4.6484375 C-3.18778129 3.16271808 -1.58115759 1.62548911 0 0 Z " fill="#4D4D4D" transform="translate(293,279)"/>
<path d="M0 0 C0.66 0 1.32 0 2 0 C1.01 6.93 0.02 13.86 -1 21 C-1.33 21 -1.66 21 -2 21 C-2.12813117 14.30870551 -2.0835807 7.62188208 -1 1 C-0.67 0.67 -0.34 0.34 0 0 Z " fill="#ED7A7A" transform="translate(256,32)"/>
<path d="M0 0 C0.66 0.99 1.32 1.98 2 3 C1.27683594 3.61488281 1.27683594 3.61488281 0.5390625 4.2421875 C-0.09257812 4.78101563 -0.72421875 5.31984375 -1.375 5.875 C-2.00148438 6.40867187 -2.62796875 6.94234375 -3.2734375 7.4921875 C-4.55836651 8.61432007 -5.79371975 9.79371975 -7 11 C-7.99 10.67 -8.98 10.34 -10 10 C-6.7 6.7 -3.4 3.4 0 0 Z " fill="#565656" transform="translate(326,250)"/>
<path d="M0 0 C0.66 0 1.32 0 2 0 C2 0.66 2 1.32 2 2 C1.401875 2.4125 0.80375 2.825 0.1875 3.25 C-2.57058987 5.45647189 -3.58066427 7.80649461 -5 11 C-6.32 10.67 -7.64 10.34 -9 10 C-7.5484451 8.32742645 -6.08855591 6.66208242 -4.625 5 C-3.81289062 4.071875 -3.00078125 3.14375 -2.1640625 2.1875 C-1.44992188 1.465625 -0.73578125 0.74375 0 0 Z " fill="#EC7576" transform="translate(254,14)"/>
<path d="M0 0 C3.63 0.33 7.26 0.66 11 1 C11 1.66 11 2.32 11 3 C12.65 3.33 14.3 3.66 16 4 C12.11764181 5.49828872 9.56550712 4.43110582 5.75 3.0625 C4.67234375 2.68222656 3.5946875 2.30195313 2.484375 1.91015625 C1.66453125 1.60980469 0.8446875 1.30945313 0 1 C0 0.67 0 0.34 0 0 Z " fill="#EB716E" transform="translate(261,166)"/>
<path d="M0 0 C1.90389849 2.85584773 2.69462177 4.9311762 3.625 8.1875 C3.88539063 9.08855469 4.14578125 9.98960938 4.4140625 10.91796875 C4.60742188 11.60503906 4.80078125 12.29210937 5 13 C0.125 10.375 0.125 10.375 -1 7 C-0.72230092 4.6593935 -0.39460023 2.32375692 0 0 Z " fill="#F16768" transform="translate(258,91)"/>
<path d="M0 0 C0.33 0 0.66 0 1 0 C1.3690205 10.55808656 1.3690205 10.55808656 -1 15 C-1.66 15 -2.32 15 -3 15 C-2.44854729 9.76119922 -1.57077907 5.02649303 0 0 Z " fill="#EB6665" transform="translate(224,65)"/>
<path d="M0 0 C2.03219488 3.40351338 2.36891039 6.3232927 2.625 10.25 C2.69976562 11.32765625 2.77453125 12.4053125 2.8515625 13.515625 C2.92503906 14.74539062 2.92503906 14.74539062 3 16 C-0.05186031 11.42220953 -1.48720375 6.52164246 -1 1 C-0.67 0.67 -0.34 0.34 0 0 Z " fill="#ED716F" transform="translate(221,113)"/>
<path d="M0 0 C1.05960937 0.00676758 1.05960937 0.00676758 2.140625 0.01367188 C3.88545275 0.02546125 5.630237 0.04339676 7.375 0.0625 C7.375 0.3925 7.375 0.7225 7.375 1.0625 C6.39917969 1.09988281 5.42335938 1.13726562 4.41796875 1.17578125 C2.50951172 1.27439453 2.50951172 1.27439453 0.5625 1.375 C-1.33435547 1.46201172 -1.33435547 1.46201172 -3.26953125 1.55078125 C-6.74453429 2.08072933 -7.50877324 2.44006617 -9.625 5.0625 C-10.285 5.0625 -10.945 5.0625 -11.625 5.0625 C-9.0152578 -0.71621488 -5.87009536 -0.07039782 0 0 Z " fill="#747474" transform="translate(350.625,367.9375)"/>
<path d="M0 0 C2.475 0.495 2.475 0.495 5 1 C4.67 2.32 4.34 3.64 4 5 C5.32 5.66 6.64 6.32 8 7 C8 7.99 8 8.98 8 10 C3.92236229 7.13463296 1.97322935 4.56958375 0 0 Z " fill="#EF6467" transform="translate(229,139)"/>
<path d="M0 0 C1.29608947 0.93137592 2.58671632 1.8703566 3.875 2.8125 C4.59429687 3.33457031 5.31359375 3.85664063 6.0546875 4.39453125 C8 6 8 6 10 9 C9.01 9.495 9.01 9.495 8 10 C7.67 9.34 7.34 8.68 7 8 C6.38125 7.896875 5.7625 7.79375 5.125 7.6875 C3 7 3 7 1.25 4.5625 C0 2 0 2 0 0 Z " fill="#EE6F70" transform="translate(305,159)"/>
<path d="M0 0 C-1.75 5.75 -1.75 5.75 -4 8 C-4 6.68 -4 5.36 -4 4 C-5.32 4.33 -6.64 4.66 -8 5 C-3.22727273 0 -3.22727273 0 0 0 Z " fill="#E9878A" transform="translate(269,5)"/>
<path d="M0 0 C0.66 0.99 1.32 1.98 2 3 C0.02 3.99 0.02 3.99 -2 5 C-3.32 4.01 -4.64 3.02 -6 2 C-4.02 1.34 -2.04 0.68 0 0 Z " fill="#F56364" transform="translate(261,161)"/>
</svg>
